<svg width="24" height="24" viewBox="0 0 24 24" fill="none" xmlns="http://www.w3.org/2000/svg">
<path d="M16.6875 20.4375C17.5159 20.4375 18.1875 19.7659 18.1875 18.9375C18.1875 18.1091 17.5159 17.4375 16.6875 17.4375C15.8591 17.4375 15.1875 18.1091 15.1875 18.9375C15.1875 19.7659 15.8591 20.4375 16.6875 20.4375Z" stroke="white" stroke-miterlimit="10" stroke-linecap="round" stroke-linejoin="round"/>
<path d="M9.1875 20.4375C10.0159 20.4375 10.6875 19.7659 10.6875 18.9375C10.6875 18.1091 10.0159 17.4375 9.1875 17.4375C8.35907 17.4375 7.6875 18.1091 7.6875 18.9375C7.6875 19.7659 8.35907 20.4375 9.1875 20.4375Z" stroke="white" stroke-miterlimit="10" stroke-linecap="round" stroke-linejoin="round"/>
<path d="M5.4375 6.1875H21.015C21.5413 6.1875 21.904 6.71548 21.715 7.20673L18.7269 14.976C18.5041 15.5553 17.9475 15.9375 17.3268 15.9375H8.55152C7.83232 15.9375 7.21433 15.427 7.07851 14.7208L5.4375 6.1875Z" stroke="white" stroke-miterlimit="10" stroke-linecap="round" stroke-linejoin="round"/>
<path d="M5.42728 6.18952L5.14298 4.76828C5.00274 4.06716 4.38713 3.5625 3.67212 3.5625H2.31445" stroke="white" stroke-miterlimit="10" stroke-linecap="round" stroke-linejoin="round"/>
<path d="M16.857 8.4375H17.4195" stroke="white" stroke-miterlimit="10" stroke-linecap="round" stroke-linejoin="round"/>
<path d="M6 8.4375H15.1695" stroke="white" stroke-miterlimit="10" stroke-linecap="round" stroke-linejoin="round"/>
</svg>
