<svg width="41" height="41" viewBox="0 0 41 41" fill="none" xmlns="http://www.w3.org/2000/svg">
<path d="M10.25 32.4583C11.7611 32.4534 13.228 31.9477 14.4211 31.0204C15.6143 30.0931 16.4664 28.7964 16.8442 27.3333H20.9783L23.9167 25.625C23.9167 26.9765 24.3174 28.2976 25.0683 29.4214C25.8191 30.5451 26.8864 31.4209 28.135 31.9381C29.3836 32.4553 30.7576 32.5907 32.0831 32.327C33.4086 32.0633 34.6262 31.4125 35.5819 30.4569C36.5375 29.5012 37.1884 28.2836 37.452 26.9581C37.7157 25.6325 37.5804 24.2586 37.0632 23.01C36.546 21.7613 35.6701 20.6941 34.5464 19.9433C33.4226 19.1924 32.1015 18.7916 30.75 18.7916H30.2887L29.0417 15.1016V11.9583H30.75C31.2031 11.9583 31.6376 12.1383 31.958 12.4587C32.2783 12.779 32.4583 13.2135 32.4583 13.6666H35.875C35.875 12.3074 35.335 11.0038 34.3739 10.0427C33.4128 9.08158 32.1092 8.54163 30.75 8.54163H25.625V13.6666H18.7917V11.9583H20.5V8.54163H13.6667V11.9583H15.375V14.8625L12.4879 19.2016C11.7701 18.9409 11.0136 18.8023 10.25 18.7916C8.43768 18.7916 6.69959 19.5116 5.41809 20.7931C4.1366 22.0746 3.41666 23.8126 3.41666 25.625C3.41666 27.4373 4.1366 29.1754 5.41809 30.4569C6.69959 31.7384 8.43768 32.4583 10.25 32.4583ZM20.0217 23.9166H16.8442C16.5828 22.8746 16.0795 21.9089 15.375 21.0979L18.0058 17.0833H26.1033L26.9917 19.7483L20.0217 23.9166ZM34.1667 25.625C34.1667 26.3007 33.9663 26.9613 33.5908 27.5232C33.2154 28.085 32.6818 28.5229 32.0575 28.7815C31.4332 29.0401 30.7462 29.1078 30.0834 28.976C29.4207 28.8441 28.8119 28.5187 28.334 28.0409C27.8562 27.5631 27.5308 26.9543 27.399 26.2915C27.2671 25.6287 27.3348 24.9418 27.5934 24.3175C27.852 23.6931 28.2899 23.1595 28.8518 22.7841C29.4137 22.4087 30.0742 22.2083 30.75 22.2083C31.6561 22.2083 32.5252 22.5683 33.1659 23.209C33.8067 23.8498 34.1667 24.7188 34.1667 25.625ZM10.25 22.2083C10.9257 22.2083 11.5863 22.4087 12.1482 22.7841C12.7101 23.1595 13.148 23.6931 13.4066 24.3175C13.6652 24.9418 13.7328 25.6287 13.601 26.2915C13.4692 26.9543 13.1438 27.5631 12.6659 28.0409C12.1881 28.5187 11.5793 28.8441 10.9165 28.976C10.2538 29.1078 9.5668 29.0401 8.94249 28.7815C8.31817 28.5229 7.78456 28.085 7.40914 27.5232C7.03371 26.9613 6.83332 26.3007 6.83332 25.625C6.83332 24.7188 7.19329 23.8498 7.83404 23.209C8.47479 22.5683 9.34383 22.2083 10.25 22.2083Z" fill="#933326"/>
</svg>
