<svg width="41" height="41" viewBox="0 0 41 41" fill="none" xmlns="http://www.w3.org/2000/svg">
<path d="M36.1953 7.6875H4.80469C3.56348 7.6875 2.57051 8.68848 2.5625 9.92969V9.95371V31.0463V31.0703C2.57852 32.3115 3.56348 33.3125 4.80469 33.3125H36.1953C37.4445 33.3125 38.4375 32.2955 38.4375 31.0463V9.95371C38.4375 8.70449 37.4445 7.6875 36.1953 7.6875ZM6.17402 10.25H34.818C35.3705 10.25 35.7869 10.6584 35.867 11.2109V12.8125H5.125V11.1869C5.20508 10.6424 5.62949 10.25 6.17402 10.25ZM34.826 30.75H6.17402C5.62148 30.75 5.20508 30.3576 5.125 29.8131V20.5H35.875V29.7891C35.7949 30.3416 35.3705 30.75 34.826 30.75Z" fill="#933326"/>
<path d="M23.0625 24.3438H7.6875V25.625H23.0625V24.3438Z" fill="#933326"/>
<path d="M15.375 26.9062H7.6875V28.1875H15.375V26.9062Z" fill="#933326"/>
<path d="M33.3125 24.3438H28.1875V28.1875H33.3125V24.3438Z" fill="#933326"/>
</svg>
