<svg width="139" height="30" viewBox="0 0 139 30" fill="none" xmlns="http://www.w3.org/2000/svg">
<path d="M11.8574 6.1748V8.59961H14.5488V11.6211H11.8574V20H8.82324V11.6211H6.10645V8.59961H8.82324V6.1748H1.9043V3.15332H18.751V6.1748H11.8574ZM37.9971 16.9658V20H25.2891V6.1748H22.5723V3.15332H33.7949V6.1748H28.3232V10.4277C29.068 9.81836 29.9017 9.34017 30.8242 8.99316C31.7552 8.64616 32.7454 8.47266 33.7949 8.47266V11.5449C33.0501 11.5449 32.3519 11.6888 31.7002 11.9766C31.0485 12.2643 30.4772 12.6536 29.9863 13.1445C29.4954 13.6354 29.1061 14.2109 28.8184 14.8711C28.5306 15.5312 28.3825 16.2295 28.374 16.9658H37.9971ZM58.665 3.15332V20H55.6436V9.62793C54.8988 10.2288 54.0693 10.7028 53.1553 11.0498C52.2412 11.3968 51.2721 11.5703 50.248 11.5703C49.2155 11.5703 48.2422 11.3968 47.3281 11.0498C46.4225 10.7028 45.5973 10.2288 44.8525 9.62793V20H41.8184V3.15332H44.8525C44.8525 3.85579 44.988 4.53711 45.2588 5.19727C45.5381 5.84896 45.9189 6.42448 46.4014 6.92383C46.8838 7.42318 47.4551 7.8252 48.1152 8.12988C48.7754 8.42611 49.4863 8.57422 50.248 8.57422C50.9674 8.57422 51.653 8.42611 52.3047 8.12988C52.9648 7.83366 53.5404 7.43587 54.0312 6.93652C54.5221 6.42871 54.9115 5.84896 55.1992 5.19727C55.4954 4.54557 55.6436 3.86426 55.6436 3.15332H58.665ZM77.8223 3.15332C77.8223 3.94043 77.7207 4.69792 77.5176 5.42578C77.3145 6.15365 77.0309 6.83073 76.667 7.45703C76.3031 8.08333 75.863 8.65462 75.3467 9.1709C74.8304 9.67871 74.2591 10.1146 73.6328 10.4785C73.015 10.8424 72.3464 11.126 71.627 11.3291C70.916 11.5238 70.1755 11.6211 69.4053 11.6211H68.2373V20.0508H65.165V11.6211H64.124V8.6123H65.165V6.16211H62.4863V3.15332H77.8223ZM69.3799 8.6123C69.8369 8.6123 70.2812 8.55729 70.7129 8.44727C71.153 8.32878 71.5677 8.16374 71.957 7.95215C72.3464 7.7321 72.7018 7.47396 73.0234 7.17773C73.3451 6.87305 73.6286 6.53451 73.874 6.16211H68.2373V8.6123H69.3799ZM97.0303 17.0039V20H89.959C89.2142 19.9915 88.4948 19.8942 87.8008 19.708C87.1068 19.5133 86.4551 19.2425 85.8457 18.8955C85.2448 18.5485 84.6904 18.1338 84.1826 17.6514C83.6833 17.1605 83.2474 16.6188 82.875 16.0264C82.5111 15.4255 82.2191 14.7822 81.999 14.0967C81.7874 13.4111 81.6647 12.6917 81.6309 11.9385V3.15332H84.665V11.583C84.665 12.3278 84.8047 13.0303 85.084 13.6904C85.3717 14.3421 85.7568 14.9134 86.2393 15.4043C86.7301 15.8952 87.3014 16.2845 87.9531 16.5723C88.6133 16.86 89.3115 17.0039 90.0479 17.0039H91.2666V3.15332H94.3008V17.0039H97.0303ZM100.852 3.15332H116.238C116.238 3.86426 116.149 4.55827 115.972 5.23535C115.802 5.90397 115.557 6.53874 115.235 7.13965C114.914 7.7321 114.524 8.28223 114.067 8.79004C113.619 9.28939 113.115 9.72526 112.557 10.0977C113.098 10.4616 113.593 10.8932 114.042 11.3926C114.491 11.8835 114.871 12.4294 115.185 13.0303C115.506 13.6227 115.752 14.2617 115.921 14.9473C116.099 15.6243 116.188 16.3268 116.188 17.0547V20H113.179V17.0547C113.179 16.3014 113.035 15.5947 112.747 14.9346C112.468 14.266 112.078 13.6862 111.579 13.1953C111.088 12.696 110.513 12.3066 109.853 12.0273C109.192 11.7396 108.486 11.5957 107.732 11.5957C107.555 11.5957 107.364 11.6126 107.161 11.6465C106.958 11.6719 106.751 11.71 106.539 11.7607V20H103.543V6.14941H100.852V3.15332ZM106.539 8.3584C106.751 8.42611 106.958 8.47689 107.161 8.51074C107.373 8.53613 107.58 8.54883 107.783 8.54883C108.706 8.54883 109.548 8.33724 110.31 7.91406C111.08 7.48242 111.719 6.89421 112.227 6.14941H106.539V8.3584ZM135.599 3.15332V6.1748H132.907V20H129.797V17.0166C129.797 16.2718 129.649 15.5693 129.353 14.9092C129.065 14.249 128.671 13.6735 128.172 13.1826C127.681 12.6917 127.105 12.3066 126.445 12.0273C125.794 11.7396 125.104 11.5957 124.376 11.5957C124.156 11.5957 123.932 11.6126 123.703 11.6465C123.483 11.6719 123.284 11.71 123.106 11.7607V20H120.047V11.2402C120.047 10.487 120.148 9.76758 120.352 9.08203C120.563 8.38802 120.855 7.74479 121.228 7.15234C121.6 6.55143 122.044 6.00977 122.561 5.52734C123.077 5.03646 123.648 4.61751 124.274 4.27051C124.901 3.9235 125.565 3.65267 126.268 3.45801C126.979 3.26335 127.715 3.16178 128.477 3.15332H135.599ZM129.797 6.1748H128.578C128.096 6.1748 127.63 6.23405 127.182 6.35254C126.742 6.47103 126.327 6.6403 125.938 6.86035C125.557 7.07194 125.205 7.33008 124.884 7.63477C124.571 7.93099 124.296 8.26107 124.059 8.625C126.285 8.625 128.197 9.28092 129.797 10.5928V6.1748Z" fill="white"/>
<circle cx="50.5" cy="2.5" r="2.5" fill="white"/>
</svg>
